<svg width="23" height="27" viewBox="0 0 23 27" fill="none" xmlns="http://www.w3.org/2000/svg">
<path d="M23 13.5C23 19.8513 17.8513 25 11.5 25C5.14873 25 0 19.8513 0 13.5C0 7.14873 5.14873 2 11.5 2C17.8513 2 23 7.14873 23 13.5Z" fill="#E60023"/>
<path d="M8.44 26.768V0.307998H12.076V1.604C12.628 1.076 13.144 0.679998 13.624 0.415999C14.116 0.151999 14.56 0.0199995 14.956 0.0199995C15.772 0.0199995 16.444 0.385999 16.972 1.118C17.5 1.85 17.764 2.768 17.764 3.872V16.436C17.764 17.168 17.638 17.828 17.386 18.416C17.146 18.992 16.816 19.448 16.396 19.784C15.976 20.12 15.496 20.288 14.956 20.288C14.56 20.288 14.14 20.168 13.696 19.928C13.264 19.688 12.724 19.28 12.076 18.704V26.768H8.44ZM13.156 16.868C13.432 16.868 13.66 16.754 13.84 16.526C14.032 16.298 14.128 16.016 14.128 15.68V4.628C14.128 4.292 14.032 4.01 13.84 3.782C13.66 3.554 13.432 3.44 13.156 3.44C12.868 3.44 12.616 3.56 12.4 3.8C12.184 4.028 12.076 4.304 12.076 4.628V15.68C12.076 15.968 12.19 16.238 12.418 16.49C12.646 16.742 12.892 16.868 13.156 16.868Z" fill="white"/>
</svg>