<svg width="20" height="20" viewBox="0 0 20 20" fill="none" xmlns="http://www.w3.org/2000/svg">
<path d="M7.01248 3.82166C7.16622 3.66248 7.35013 3.53551 7.55347 3.44816C7.75681 3.36081 7.97551 3.31484 8.19681 3.31291C8.41811 3.31099 8.63757 3.35316 8.8424 3.43696C9.04723 3.52076 9.23332 3.64452 9.3898 3.80101C9.54629 3.95749 9.67005 4.14358 9.75385 4.34841C9.83765 4.55324 9.87982 4.7727 9.8779 4.994C9.87597 5.2153 9.83 5.434 9.74265 5.63734C9.6553 5.84068 9.52833 6.02459 9.36915 6.17833L7.21415 8.33333H17.5C17.942 8.33333 18.3659 8.50893 18.6785 8.82149C18.991 9.13405 19.1666 9.55797 19.1666 10C19.1666 10.442 18.991 10.8659 18.6785 11.1785C18.3659 11.4911 17.942 11.6667 17.5 11.6667H7.21415L9.36915 13.8217C9.52833 13.9754 9.6553 14.1593 9.74265 14.3627C9.83 14.566 9.87597 14.7847 9.8779 15.006C9.87982 15.2273 9.83765 15.4468 9.75385 15.6516C9.67005 15.8564 9.54629 16.0425 9.3898 16.199C9.23332 16.3555 9.04723 16.4792 8.8424 16.563C8.63757 16.6468 8.41811 16.689 8.19681 16.6871C7.97551 16.6852 7.75681 16.6392 7.55347 16.5518C7.35013 16.4645 7.16622 16.3375 7.01248 16.1783L0.833313 10L7.01248 3.82166Z" fill="black"/>
</svg>
