<svg width="20" height="19" viewBox="0 0 20 19" fill="none" xmlns="http://www.w3.org/2000/svg">
<path d="M7.5 15.4167C7.30843 15.4166 7.11875 15.3788 6.94179 15.3055C6.76483 15.2321 6.60405 15.1246 6.46863 14.9891C6.33321 14.8536 6.22581 14.6928 6.15255 14.5158C6.07929 14.3388 6.04161 14.1491 6.04167 13.9575C6.04172 13.7659 6.07951 13.5763 6.15287 13.3993C6.22623 13.2223 6.33372 13.0615 6.46922 12.9261C6.60472 12.7907 6.76556 12.6833 6.94256 12.61C7.11957 12.5368 7.30927 12.4991 7.50083 12.4992C7.88772 12.4993 8.25871 12.6531 8.5322 12.9267C8.80569 13.2004 8.95928 13.5714 8.95917 13.9583C8.95906 14.3452 8.80526 14.7162 8.53161 14.9897C8.25797 15.2632 7.88688 15.4168 7.5 15.4167ZM18.5417 12.5H11.6075C11.0042 10.805 9.4025 9.58333 7.5 9.58333C5.5975 9.58333 3.99583 10.805 3.3925 12.5H1.45833C1.07156 12.5 0.700626 12.6536 0.427136 12.9271C0.153645 13.2006 0 13.5716 0 13.9583C0 14.3451 0.153645 14.716 0.427136 14.9895C0.700626 15.263 1.07156 15.4167 1.45833 15.4167H3.3925C3.99583 17.1117 5.5975 18.3333 7.5 18.3333C9.4025 18.3333 11.0042 17.1117 11.6075 15.4167H18.5417C18.9284 15.4167 19.2994 15.263 19.5729 14.9895C19.8464 14.716 20 14.3451 20 13.9583C20 13.5716 19.8464 13.2006 19.5729 12.9271C19.2994 12.6536 18.9284 12.5 18.5417 12.5ZM12.5 2.91667C12.8869 2.91678 13.2579 3.07057 13.5314 3.34422C13.8049 3.61787 13.9584 3.98895 13.9583 4.37583C13.9582 4.76272 13.8044 5.13371 13.5308 5.4072C13.2571 5.68069 12.8861 5.83428 12.4992 5.83417C12.3076 5.83411 12.1179 5.79633 11.941 5.72297C11.764 5.64961 11.6032 5.54211 11.4678 5.40661C11.3324 5.27112 11.225 5.11028 11.1517 4.93327C11.0785 4.75627 11.0408 4.56657 11.0408 4.375C11.0409 4.18343 11.0787 3.99375 11.152 3.81679C11.2254 3.63983 11.3329 3.47905 11.4684 3.34363C11.6039 3.20821 11.7647 3.10081 11.9417 3.02755C12.1187 2.95429 12.3084 2.91661 12.5 2.91667ZM1.45833 5.83333H8.3925C8.99583 7.52833 10.5975 8.75 12.5 8.75C14.4025 8.75 16.0042 7.52833 16.6075 5.83333H18.5417C18.9284 5.83333 19.2994 5.67969 19.5729 5.4062C19.8464 5.13271 20 4.76177 20 4.375C20 3.98823 19.8464 3.61729 19.5729 3.3438C19.2994 3.07031 18.9284 2.91667 18.5417 2.91667H16.6075C16.0042 1.22167 14.4025 0 12.5 0C10.5975 0 8.99583 1.22167 8.3925 2.91667H1.45833C1.07156 2.91667 0.700626 3.07031 0.427136 3.3438C0.153645 3.61729 0 3.98823 0 4.375C0 4.76177 0.153645 5.13271 0.427136 5.4062C0.700626 5.67969 1.07156 5.83333 1.45833 5.83333Z" fill="black"/>
</svg>
