<svg width="24" height="20" viewBox="0 0 24 20" fill="none" xmlns="http://www.w3.org/2000/svg">
<path d="M5.94001 2.5C6.97001 2.5 8 2.92 8.74001 3.65L12 6.82L15.26 3.65C16 2.92 17.03 2.5 18.06 2.5C18.62 2.5 19.44 2.63 20.19 3.23C20.97 3.85 21.42 4.73 21.46 5.69C21.51 6.65 21.15 7.55 20.45 8.23L20.33 8.35C20.27 8.42 14.19 15.18 11.99 17.46C9.79 15.18 3.72001 8.42 3.65001 8.35L3.61001 8.29L3.55001 8.23C2.85001 7.55 2.49001 6.64 2.54001 5.69C2.59001 4.73 3.04001 3.86 3.81001 3.23C4.56001 2.63 5.38001 2.5 5.94001 2.5ZM18.06 0C16.4 0 14.73 0.65 13.48 1.87C13.11 2.23 12 3.31 12 3.31C12 3.31 10.89 2.23 10.52 1.87C9.27001 0.65 7.60001 0 5.94001 0C4.61001 0 3.29001 0.42 2.21001 1.29C-0.579991 3.54 -0.729991 7.57 1.77001 10.01C1.77001 10.01 8.06001 17.02 10.25 19.27C10.72 19.76 11.36 20 12 20C12.64 20 13.28 19.76 13.75 19.27C15.94 17.02 22.23 10.01 22.23 10.01C24.73 7.58 24.58 3.54 21.79 1.29C20.71 0.42 19.39 0 18.06 0Z" fill="#111111"/>
</svg>
