<svg width="120" height="120" viewBox="0 0 120 120" fill="none" xmlns="http://www.w3.org/2000/svg">
<path d="M66.72 17.122L60 23.897L53.28 17.122C41.084 4.95901 21.305 4.95901 9.10899 17.122C-3.03601 29.331 -3.03601 49.136 9.10899 61.345L60 111.636L110.891 61.345C123.036 49.136 123.036 29.331 110.891 17.122C104.793 11.041 96.799 8.00001 88.805 8.00001C80.811 8.00001 72.818 11.041 66.72 17.122Z" fill="#FF5246"/>
<path d="M32.727 48.909C32.727 53.428 36.391 57.091 40.909 57.091C45.428 57.091 49.091 53.428 49.091 48.909C49.091 44.391 45.428 40.727 40.909 40.727C36.391 40.727 32.727 44.391 32.727 48.909Z" fill="#720906"/>
<path d="M70.909 48.909C70.909 53.428 74.572 57.091 79.091 57.091C83.61 57.091 87.273 53.428 87.273 48.909C87.273 44.391 83.61 40.727 79.091 40.727C74.572 40.727 70.909 44.391 70.909 48.909Z" fill="#720906"/>
<path d="M60 66.8C54.1 66.8 48.6 65.5 43.7 63.1C43.9 72 51.1 79.1 60 79.1C68.9 79.1 76.2 71.9 76.3 63.1C71.4 65.4 65.9 66.8 60 66.8Z" fill="#720906"/>
</svg>
