<svg width="16" height="16" viewBox="0 0 16 16" fill="none" xmlns="http://www.w3.org/2000/svg">
<path d="M5.33332 6.66667C6.06666 6.66667 6.66666 6.06667 6.66666 5.33334C6.66666 4.60001 6.06666 4.00001 5.33332 4.00001C4.59999 4.00001 3.99999 4.60001 3.99999 5.33334C3.99999 6.06667 4.59999 6.66667 5.33332 6.66667ZM4.16666 2.33334H11.8333C12.8467 2.33334 13.6667 3.15334 13.6667 4.16667V9.66667L11.3333 7.33334L7.33332 11.3333L4.99999 9.00001L2.33332 11.6667V4.16667C2.33332 3.15334 3.15332 2.33334 4.16666 2.33334ZM11.8333 0.666672H4.16666C3.2384 0.666672 2.34816 1.03542 1.69178 1.6918C1.03541 2.34818 0.666656 3.23841 0.666656 4.16667V11.8333C0.666656 13.76 2.23332 15.3333 4.16666 15.3333H11.8333C13.76 15.3333 15.3333 13.76 15.3333 11.8333V4.16667C15.3333 2.23334 13.76 0.666672 11.8333 0.666672Z" fill="#767676"/>
</svg>
