<svg width="30" height="19" viewBox="0 0 30 19" fill="none" xmlns="http://www.w3.org/2000/svg">
<path d="M15 15L13.2322 16.7678L15 18.5355L16.7678 16.7678L15 15ZM28.7678 4.76777C29.7441 3.79146 29.7441 2.20854 28.7678 1.23223C27.7915 0.255922 26.2085 0.255922 25.2322 1.23223L28.7678 4.76777ZM4.76777 1.23223C3.79146 0.255922 2.20854 0.255922 1.23223 1.23223C0.255922 2.20854 0.255922 3.79146 1.23223 4.76777L4.76777 1.23223ZM16.7678 16.7678L28.7678 4.76777L25.2322 1.23223L13.2322 13.2322L16.7678 16.7678ZM1.23223 4.76777L13.2322 16.7678L16.7678 13.2322L4.76777 1.23223L1.23223 4.76777Z" fill="white"/>
</svg>
