<svg width="20" height="20" viewBox="0 0 20 20" fill="none" xmlns="http://www.w3.org/2000/svg">
<path d="M9.16668 1.87499C9.16668 2.44999 8.70001 2.91666 8.12501 2.91666H4.39001L8.86168 7.38833C9.05705 7.5837 9.16681 7.84869 9.16681 8.12499C9.16681 8.4013 9.05705 8.66628 8.86168 8.86166C8.6663 9.05704 8.40131 9.1668 8.12501 9.1668C7.84871 9.1668 7.58372 9.05704 7.38834 8.86166L2.91668 4.38999V8.12499C2.91668 8.40126 2.80693 8.66621 2.61158 8.86156C2.41623 9.05691 2.15128 9.16666 1.87501 9.16666C1.59874 9.16666 1.33379 9.05691 1.13844 8.86156C0.94309 8.66621 0.833344 8.40126 0.833344 8.12499V0.833328H8.12501C8.70001 0.833328 9.16668 1.29999 9.16668 1.87499ZM18.125 10.8333C18.7 10.8333 19.1667 11.3 19.1667 11.875V19.1667H11.875C11.5987 19.1667 11.3338 19.0569 11.1384 18.8616C10.9431 18.6662 10.8333 18.4013 10.8333 18.125C10.8333 17.8487 10.9431 17.5838 11.1384 17.3884C11.3338 17.1931 11.5987 17.0833 11.875 17.0833H15.61L11.1383 12.6117C10.943 12.4163 10.8332 12.1513 10.8332 11.875C10.8332 11.5987 10.943 11.3337 11.1383 11.1383C11.3337 10.943 11.5987 10.8332 11.875 10.8332C12.1513 10.8332 12.4163 10.943 12.6117 11.1383L17.0833 15.61V11.875C17.0833 11.3 17.55 10.8333 18.125 10.8333Z" fill="black"/>
</svg>
