<svg width="20" height="20" viewBox="0 0 20 20" fill="none" xmlns="http://www.w3.org/2000/svg">
<g clip-path="url(#clip0_113_6)">
<path d="M11.95 17.6667C11.95 18.975 10.9583 20 9.63333 20C8.31667 20 7.325 18.975 7.325 17.6667C7.325 16.3583 8.31667 15.3333 9.63333 15.3333C10.9583 15.3333 11.95 16.3583 11.95 17.6667ZM9.84167 8.6C11.0167 7.575 12.5917 6.89167 12.5917 5.375C12.5917 4.16667 11.5583 3.40833 10.1333 3.40833C8.36667 3.40833 7.2 4.64167 7.175 6.26667H3.125C3.23333 2.75 5.8 0 10.2833 0C14.3333 0 16.875 2.1 16.875 5.26667C16.875 7.23333 15.9667 8.44167 14.9583 9.25C13.5583 10.3583 12.5917 10.825 12.05 11.425C11.6333 11.9 11.5333 12.2917 11.5083 13.05H7.875C7.875 10.85 8.41667 9.8 9.84167 8.6" fill="black"/>
</g>
<defs>
<clipPath id="clip0_113_6">
<rect width="20" height="20" fill="white"/>
</clipPath>
</defs>
</svg>
