<svg width="18" height="18" viewBox="0 0 18 18" fill="none" xmlns="http://www.w3.org/2000/svg">
<path d="M11.385 9L16.755 3.63C17.415 2.97 17.415 1.905 16.755 1.245C16.095 0.585 15.03 0.585 14.37 1.245L9 6.615L3.63 1.245C2.97 0.585 1.905 0.585 1.245 1.245C0.585 1.905 0.585 2.97 1.245 3.63L6.615 9L1.245 14.37C0.585 15.03 0.585 16.095 1.245 16.755C1.575 17.085 2.0025 17.25 2.4375 17.25C2.8725 17.25 3.3 17.085 3.63 16.755L9 11.385L14.37 16.755C14.7 17.085 15.1275 17.25 15.5625 17.25C15.9975 17.25 16.425 17.085 16.755 16.755C17.415 16.095 17.415 15.03 16.755 14.37L11.385 9Z" fill="black"/>
</svg>
