<svg width="18" height="6" viewBox="0 0 18 6" fill="none" xmlns="http://www.w3.org/2000/svg">
<path d="M9 0.75C7.755 0.75 6.75 1.755 6.75 3C6.75 4.245 7.755 5.25 9 5.25C10.245 5.25 11.25 4.245 11.25 3C11.25 1.755 10.245 0.75 9 0.75ZM2.25 0.75C3.495 0.75 4.5 1.755 4.5 3C4.5 4.245 3.495 5.25 2.25 5.25C1.005 5.25 0 4.245 0 3C0 1.755 1.005 0.75 2.25 0.75ZM15.75 0.75C16.995 0.75 18 1.755 18 3C18 4.245 16.995 5.25 15.75 5.25C14.505 5.25 13.5 4.245 13.5 3C13.5 1.755 14.505 0.75 15.75 0.75Z" fill="#767676"/>
</svg>
