<svg width="20" height="20" viewBox="0 0 20 20" fill="none" xmlns="http://www.w3.org/2000/svg">
<path d="M8.33333 13.3333C5.575 13.3333 3.33333 11.0917 3.33333 8.33333C3.33333 5.575 5.575 3.33333 8.33333 3.33333C11.0917 3.33333 13.3333 5.575 13.3333 8.33333C13.3333 11.0917 11.0917 13.3333 8.33333 13.3333ZM19.2667 15.7333L15.7167 12.1833C16.3435 10.997 16.6697 9.67505 16.6667 8.33333C16.6667 3.73333 12.9333 0 8.33333 0C3.73333 0 0 3.73333 0 8.33333C0 12.9333 3.73333 16.6667 8.33333 16.6667C9.725 16.6667 11.0333 16.325 12.1833 15.7167L15.7333 19.2667C16.2021 19.7348 16.8375 19.9978 17.5 19.9978C18.1625 19.9978 18.7979 19.7348 19.2667 19.2667C19.7348 18.7979 19.9978 18.1625 19.9978 17.5C19.9978 16.8375 19.7348 16.2021 19.2667 15.7333" fill="#767676"/>
</svg>
