<svg width="16" height="18" viewBox="0 0 16 18" fill="none" xmlns="http://www.w3.org/2000/svg">
<path d="M2.6585 16.587C2.6807 16.9692 2.84818 17.3284 3.12663 17.5911C3.40509 17.8538 3.77344 18.0001 4.15625 18H11.828C12.2102 17.9997 12.5779 17.8536 12.8559 17.5914C13.134 17.3292 13.3015 16.9708 13.3243 16.5892L14 5.25H2L2.66 16.587H2.6585ZM15.5 2.625C15.5 2.92337 15.3815 3.20952 15.1705 3.4205C14.9595 3.63147 14.6734 3.75 14.375 3.75H1.625C1.32663 3.75 1.04048 3.63147 0.829505 3.4205C0.618526 3.20952 0.5 2.92337 0.5 2.625C0.5 2.32663 0.618526 2.04048 0.829505 1.8295C1.04048 1.61853 1.32663 1.5 1.625 1.5H6.125V0.75C6.125 0.551088 6.20402 0.360322 6.34467 0.21967C6.48532 0.0790176 6.67609 0 6.875 0L9.125 0C9.32391 0 9.51468 0.0790176 9.65533 0.21967C9.79598 0.360322 9.875 0.551088 9.875 0.75V1.5H14.375C14.6734 1.5 14.9595 1.61853 15.1705 1.8295C15.3815 2.04048 15.5 2.32663 15.5 2.625V2.625Z" fill="black"/>
</svg>
