<svg width="32" height="32" viewBox="0 0 32 32" fill="none" xmlns="http://www.w3.org/2000/svg">
<path d="M32 16C32 7.164 24.8373 0 16 0C7.164 0 0 7.164 0 16C0 24.836 7.164 32 16 32C24.8373 32 32 24.836 32 16ZM17.644 21C17.644 21.442 17.4684 21.866 17.1558 22.1785C16.8433 22.4911 16.4194 22.6667 15.9773 22.6667C15.5353 22.6667 15.1114 22.4911 14.7988 22.1785C14.4863 21.866 14.3107 21.442 14.3107 21V15.736L12.936 17.1107C12.6234 17.4233 12.1994 17.5989 11.7573 17.5989C11.3152 17.5989 10.8913 17.4233 10.5787 17.1107C10.2661 16.7981 10.0904 16.3741 10.0904 15.932C10.0904 15.4899 10.2661 15.0659 10.5787 14.7533L16 9.33333L21.4213 14.7533C21.7339 15.0659 21.9096 15.4899 21.9096 15.932C21.9096 16.3741 21.7339 16.7981 21.4213 17.1107C21.1087 17.4233 20.6848 17.5989 20.2427 17.5989C19.8006 17.5989 19.3766 17.4233 19.064 17.1107L17.644 15.6907V21V21Z" fill="#767676"/>
</svg>
